<svg xmlns="http://www.w3.org/2000/svg" viewBox="0 0 297.32 220.91" xmlns:v="https://vecta.io/nano"><g fill="#a7a9ac"><path d="M65.51 188.84c-.47 0-.74-.17-.81-.49-.12-.64.13-.83 7-3.55 5-2 11.29-4.47 14.38-6.42 43.46-22.78 80.62-70.3 96.78-104.83 1.79-3.81 3.47-7.21 5-10.1l.7-1.57.63-1.41a323 323 0 0 1 31.47-49.71c3.61-4.11 8.29-8 9.3-8h.27l.23.26a.65.65 0 0 1 0 .65v.07l-.05.06C217.13 18.92 203.77 39 192.8 60.34a15.89 15.89 0 0 0-1.27 2.36c-.06.17-.14.36-.25.61q-1 2.06-2 4.09c-1.29 2.68-2.64 5.44-3.78 8.16-26.58 59.5-64.57 97.16-112.91 111.94-5.29 1.17-6.59 1.31-7.11 1.31z"/><path d="M229.98 3.29q.15 0 .06.21c-13.23 15.05-26.58 35-37.69 56.64a16.26 16.26 0 0 0-1.53 3c-1.92 4.08-4 8.17-5.75 12.26-24.46 54.76-60.84 95.83-112.6 111.65a51.87 51.87 0 0 1-7 1.29c-2.9 0 14.89-5.77 20.87-9.53 44.77-23.47 81.26-71.5 97-105 1.53-3.27 3.26-6.81 5-10.08l1.35-3a323.08 323.08 0 0 1 31.4-49.61c3.78-4.3 8.24-7.78 8.91-7.78m0-1c-1.36 0-6.45 4.47-9.66 8.12h0 0a323.86 323.86 0 0 0-31.5 49.76c-.3.64-.47 1-.65 1.46s-.38.86-.7 1.56c-1.53 2.89-3.21 6.29-5 10.1-16.11 34.45-53.19 81.87-96.52 104.58h0 0c-3.05 1.93-9.55 4.5-14.3 6.37-7 2.76-7.54 3-7.33 4.11 0 .27.28.9 1.3.9.59 0 1.93-.15 7.18-1.31h.08c48.48-14.82 86.58-52.57 113.21-112.21 1.15-2.72 2.48-5.47 3.78-8.14l2-4.1c.13-.28.21-.47.28-.63a13.08 13.08 0 0 1 1.04-2.28h0 0c10.95-21.31 24.29-41.35 37.55-56.44l.1-.12.06-.14a1.14 1.14 0 0 0 0-1.12 1.1 1.1 0 0 0-.92-.49z"/></g><path d="M18.7 197.29c7.35-46 31.07-73.3 58.49-87.74 37.77-19.92 89.15-13.92 133.22-20.98 22.27-54.43 53.81-95.65 81.12-86.94 3.31 1.06 4.55 4.08 5 6.27 3.65 18.16-26 70.85-80 83.66-1.92 4.08-4.27 9.64-5.24 11.87-28.88 62.2-79.09 122.12-170.65 116.63-23.42-1.41-43.17-9-39.76-15.16 1.56-2.83 9.38 6.6 24.67 9.89 8.28 1.79 11.57 2.29 24 2.82 69.34 2.92 132.48-68.83 154.53-116 1.53-3.27 3.26-6.81 5-10.08-42.37 6-93.56.27-131.52 20.43C50.72 126.4 29.8 148.3 19.09 197.5c-.86 4.01-.39-.21-.39-.21zM286.79 20.03c.18-2.61-1.34-4.9-3.83-4.9-21.09 0-42 26.12-65.34 71.61 51.79-13.62 68.14-51.49 69.17-66.71z" fill="#231f20" stroke="#231f20" stroke-miterlimit="10"/></svg>